<?xml version="1.0" encoding="UTF-8" standalone="no"?>
<svg
   xmlns:dc="http://purl.org/dc/elements/1.1/"
   xmlns:cc="http://creativecommons.org/ns#"
   xmlns:rdf="http://www.w3.org/1999/02/22-rdf-syntax-ns#"
   xmlns:svg="http://www.w3.org/2000/svg"
   xmlns="http://www.w3.org/2000/svg"
   xmlns:sodipodi="http://sodipodi.sourceforge.net/DTD/sodipodi-0.dtd"
   xmlns:inkscape="http://www.inkscape.org/namespaces/inkscape"
   version="1.1"
   viewBox="0 0 238.425 300.00001"
   data-name="Layer 1"
   id="Layer_1"
   sodipodi:docname="du.svg"
   inkscape:version="0.92.4 (f8dce91, 2019-08-02)"
   width="238.425"
   height="300">
  <sodipodi:namedview
     pagecolor="#ffffff"
     bordercolor="#666666"
     borderopacity="1"
     objecttolerance="10"
     gridtolerance="10"
     guidetolerance="10"
     inkscape:pageopacity="0"
     inkscape:pageshadow="2"
     inkscape:window-width="1920"
     inkscape:window-height="1016"
     id="namedview62"
     showgrid="false"
     inkscape:zoom="1.3363155"
     inkscape:cx="299.86546"
     inkscape:cy="186.87197"
     inkscape:window-x="0"
     inkscape:window-y="27"
     inkscape:window-maximized="1"
     inkscape:current-layer="Layer_1"
     inkscape:object-paths="false"
     inkscape:pagecheckerboard="false"
     showborder="false" />
  <metadata
     id="metadata90">
    <rdf:RDF>
      <cc:Work
         rdf:about="">
        <dc:format>image/svg+xml</dc:format>
        <dc:type
           rdf:resource="http://purl.org/dc/dcmitype/StillImage" />
        <dc:title>Dhaka_University_logo</dc:title>
        <dc:contributor>
          <cc:Agent>
            <dc:title>Rifat Hasan Jihan | &lt;https://www.facebook.com/RHJihan&gt;</dc:title>
          </cc:Agent>
        </dc:contributor>
      </cc:Work>
    </rdf:RDF>
  </metadata>
  <defs
     id="defs4">
    <style
       id="style2">.cls-1{fill:#b79542;}.cls-2{fill:#2f1b72;}.cls-3{fill:#fdfcfb;}.cls-4{fill:#d9342d;}.cls-5{fill:#fff;}.cls-6{fill:#fffdfd;}</style>
  </defs>
  <title
     id="title6">Dhaka_University_logo</title>
  <path
     d="M 28.171446,-1.46e-6 H 212.35173 V 216.37743 a 25.929281,25.929281 0 0 1 -6.03007,17.92034 27.17776,27.17776 0 0 1 -21.42796,10.03878 c -14.31929,0.11041 -28.68953,0 -43.00881,0.0594 a 24.629845,24.629845 0 0 0 -19.78881,11.89027 c -0.90026,1.80902 -1.52025,3.71996 -2.36956,5.52898 -1.97038,-6.87937 -6.87937,-12.90944 -13.58888,-15.61872 -4.24652,-1.91943 -9.130025,-1.85998 -13.699285,-1.80053 H 54.72072 c -8.875237,0.20384 -17.470203,-4.67967 -22.209325,-12.06862 a 25.767913,25.767913 0 0 1 -4.339949,-15.38941 q -0.09342,-83.46969 0,-166.990341 c 0,-16.688847 -0.110409,-33.318238 0,-49.94763046 z"
     class="cls-1"
     id="path3204"
     inkscape:connector-curvature="0"
     style="fill:#b79542;stroke-width:0.84930497" />
  <path
     d="m 33.241797,3.9492665 q 57.175212,-0.09342 114.443843,0 c 19.84826,0.05096 39.63707,-0.118903 59.53628,0.05096 q -0.0849,55.9946725 0,111.9638735 c -13.58888,0.16986 -27.22871,0.0594 -40.86855,0.11891 -44.37619,-0.0595 -88.684429,0.11041 -133.111573,-0.0595 z"
     class="cls-2"
     id="path3206"
     inkscape:connector-curvature="0"
     style="fill:#2f1b72;stroke-width:0.84930497" />
  <path
     d="m 171.65303,49.667359 c 1.18053,0.56054 2.36107,1.01916 3.49064,1.69861 a 14.149421,14.149421 0 0 1 1.3504,2.98955 c 0.45862,1.23998 -0.56054,2.31011 -1.52026,2.76024 1.23999,-1.91094 -0.39068,-3.6605 -1.23998,-5.41007 -0.67945,0.0595 -1.3504,0.11041 -2.02984,0.11041 0,-0.67095 0,-1.40985 -0.051,-2.14025 z"
     class="cls-2"
     id="path3226"
     inkscape:connector-curvature="0"
     style="fill:#2f1b72;stroke-width:0.84930497" />
  <path
     d="m 93.228208,54.797159 c 1.019166,-0.67945 2.029839,-1.3504 3.099963,-2.08929 3.39722,3.39722 6.794439,6.87937 10.191659,10.31905 -0.67944,1.01917 -1.35889,2.02984 -2.02984,3.09997 -3.76242,-3.77092 -7.592784,-7.52485 -11.261782,-11.32973 z"
     class="cls-3"
     id="path3228"
     inkscape:connector-curvature="0"
     style="fill:#fdfcfb;stroke-width:0.84930497" />
  <path
     d="m 144.02514,52.826769 a 22.532061,22.532061 0 0 1 2.08929,2.02984 c -3.55859,3.88982 -7.49936,7.49936 -11.16836,11.32973 -0.7304,-1.01917 -1.40985,-2.08929 -2.0808,-3.21038 q 5.65637,-5.08733 11.15987,-10.14919 z"
     class="cls-3"
     id="path3230"
     inkscape:connector-curvature="0"
     style="fill:#fdfcfb;stroke-width:0.84930497" />
  <path
     d="m 84.064207,77.286749 c 5.410073,0 10.939049,0 16.349123,-0.0594 0.0594,1.01068 0.0594,2.02984 0.11041,3.09997 -5.461033,0.11041 -10.930557,-0.0595 -16.459533,0.0594 a 26.95694,26.95694 0 0 0 0,-3.09997 z"
     class="cls-3"
     id="path3234"
     inkscape:connector-curvature="0"
     style="fill:#fdfcfb;stroke-width:0.84930497" />
  <path
     d="m 139.90601,77.286749 c 5.18925,-0.0594 10.31906,-0.0594 15.50831,0 v 3.09997 h -15.50831 z"
     class="cls-3"
     id="path3236"
     inkscape:connector-curvature="0"
     style="fill:#fdfcfb;stroke-width:0.84930497" />
  <path
     d="m 104.38808,91.444669 c 0.67944,0.7304 1.40984,1.40984 2.14874,2.14025 -3.49914,3.6605 -6.794443,7.499361 -10.191662,11.219321 -1.010673,-0.67945 -2.029839,-1.3504 -3.159415,-2.02984 3.618039,-3.830371 7.601277,-7.439921 11.202337,-11.329731 z"
     class="cls-3"
     id="path3238"
     inkscape:connector-curvature="0"
     style="fill:#fdfcfb;stroke-width:0.84930497" />
  <path
     d="m 132.86527,93.525459 c 0.67095,-0.67095 1.40985,-1.35039 2.0808,-2.02983 3.77941,3.66899 7.43991,7.49936 11.21932,11.168361 -0.67095,0.78985 -1.3504,1.52025 -2.0808,2.25065 -3.72845,-3.84735 -7.49936,-7.609771 -11.21932,-11.389181 z"
     class="cls-3"
     id="path3240"
     inkscape:connector-curvature="0"
     style="fill:#fdfcfb;stroke-width:0.84930497" />
  <path
     d="m 118.54599,102.83385 c 1.07012,-0.0594 2.14025,-0.0594 3.21037,-0.0594 v 11.27877 c -1.07012,0 -2.14025,0 -3.15941,-0.0595 0,-3.71996 0,-7.43992 -0.051,-11.15987 z"
     class="cls-3"
     id="path3242"
     inkscape:connector-curvature="0"
     style="fill:#fdfcfb;stroke-width:0.84930497" />
  <path
     d="m 33.241797,120.02378 c 27.56844,-0.051 55.085921,0 82.654363,0 0.61999,0.11041 2.02984,-0.28027 1.69861,0.84931 V 247.2072 a 29.190612,29.190612 0 0 0 -12.45931,-6.79444 c -4.73912,-1.35039 -9.75851,-0.90026 -14.659,-0.95971 H 54.21963 a 21.232625,21.232625 0 0 1 -15.559267,-6.87088 22.217818,22.217818 0 0 1 -5.418566,-14.659 z"
     class="cls-2"
     id="path3244"
     inkscape:connector-curvature="0"
     style="fill:#2f1b72;stroke-width:0.84930497" />
  <path
     d="m 122.82649,120.02378 c 28.07802,0 56.26645,-0.11041 84.33598,0.0594 -0.051,32.58783 0,65.22662 -0.051,97.81446 a 21.113722,21.113722 0 0 1 -6.65005,15.44885 23.118082,23.118082 0 0 1 -15.10914,6.03007 c -14.659,0.051 -29.37746,-0.0594 -44.03646,0.051 -6.87937,0.16986 -13.41902,3.26982 -18.48937,7.83908 q 0,-63.69787 0,-127.24287 z"
     class="cls-2"
     id="path3246"
     inkscape:connector-curvature="0"
     style="fill:#2f1b72;stroke-width:0.84930497" />
  <path
     d="m 72.929819,138.43671 6.089517,22.15837 9.172494,-17.55513 1.146561,22.57452 9.079071,-10.71823 c 0,0 -4.246525,22.46412 -8.119356,29.09719 -3.040512,5.94514 -7.270051,12.22999 -14.319282,13.75025 0.05945,2.36956 0,4.62871 0.05945,6.98978 -1.69861,0 -3.39722,0.0595 -5.09583,0 0,-2.42052 0.05945,-4.73063 -0.110409,-7.15964 -4.90049,-0.84931 -8.569488,-4.62022 -11.270277,-8.49305 -4.458852,-6.87937 -6.938822,-14.70996 -8.739349,-22.65946 l -2.429012,-11.8478 9.248931,11.10891 c 0,0 1.121083,-19.6784 1.070125,-23.05863 1.180534,1.5797 9.019619,18.03923 9.019619,18.03923 z"
     class="cls-1"
     id="path3248"
     inkscape:connector-curvature="0"
     style="fill:#b79542;stroke-width:0.84930497" />
  <path
     d="m 73.023243,148.1018 c 0.764374,1.08711 4.620219,19.21978 5.639385,29.02925 0.05096,1.35889 0.560541,2.93859 -0.399174,4.11913 -1.919429,2.9301 -3.490643,6.08951 -5.359114,9.01962 a 46.941087,46.941087 0 0 0 -4.390907,-8.90921 c -1.019166,-1.3504 -0.509583,-3.15092 -0.339722,-4.62022 0.755882,-7.60978 4.849532,-28.63857 4.849532,-28.63857 z"
     class="cls-3"
     id="path3250"
     inkscape:connector-curvature="0"
     style="fill:#fdfcfb;stroke-width:0.84930497" />
  <path
     d="m 60.283668,150.87054 6.361294,14.03052 c 0,0 -0.738895,7.89004 -1.070124,11.83931 -1.80902,-2.64983 -3.499137,-5.46953 -5.868698,-7.64375 0.03397,-0.33972 0.577528,-18.22608 0.577528,-18.22608 z"
     class="cls-3"
     id="path3252"
     inkscape:connector-curvature="0"
     style="fill:#fdfcfb;stroke-width:0.84930497" />
  <path
     d="m 86.238428,151.17629 0.849305,17.70801 a 79.053308,79.053308 0 0 0 -5.749795,8.00045 c -0.169861,-3.49064 -0.908756,-6.87937 -1.078617,-10.37001 -0.280271,-2.51395 5.979107,-15.33845 5.979107,-15.33845 z"
     class="cls-3"
     id="path3254"
     inkscape:connector-curvature="0"
     style="fill:#fdfcfb;stroke-width:0.84930497" />
  <path
     d="m 150.84506,158.36141 c 8.73935,-6.87937 22.54905,-5.94514 30.44758,1.91943 6.59061,5.69034 13.18971,11.32973 19.78881,16.9861 0.8493,0.78985 2.14025,1.07861 2.76024,2.02984 -2.81969,1.46929 -4.95994,3.94926 -7.49936,5.86869 -5.46953,4.84953 -11.10891,9.46975 -16.57844,14.31928 -4.33995,3.71996 -10.2596,5.35063 -15.94994,5.09583 -5.94514,0.051 -11.72891,-2.64983 -16.17926,-6.48869 -5.09583,-4.3909 -10.31906,-8.7903 -15.44886,-13.24066 -2.14025,-1.91943 -4.45036,-3.60955 -6.36979,-5.75829 2.70079,-2.64983 5.80925,-4.79008 8.73935,-7.27005 5.35062,-4.62022 10.93905,-8.90921 16.28967,-13.52943 z"
     class="cls-1"
     id="path3256"
     inkscape:connector-curvature="0"
     style="fill:#b79542;stroke-width:0.84930497" />
  <path
     d="m 154.22529,159.66934 a 19.584973,19.584973 0 0 1 19.11786,-0.7389 c 3.09996,1.4693 5.41007,4.05968 8.0599,6.14897 5.86021,4.67967 11.7289,9.46975 17.64856,14.08997 -6.03856,5.41857 -12.23849,10.48892 -18.37896,15.72913 a 25.300796,25.300796 0 0 1 -15.78858,6.79444 c -6.31034,0.11041 -12.34889,-2.87915 -16.8587,-7.15964 -5.94514,-5.09583 -11.77986,-10.25961 -17.92883,-15.16859 a 12.968887,12.968887 0 0 1 2.1997,-2.02984 c 5.74979,-4.56077 11.32973,-9.18948 17.02856,-13.75025 a 36.936274,36.936274 0 0 1 4.90049,-3.91529 z"
     class="cls-3"
     id="path3258"
     inkscape:connector-curvature="0"
     style="fill:#fdfcfb;stroke-width:0.84930497" />
  <path
     d="m 161.50384,162.14081 c 9.18948,-1.80901 18.59978,5.41008 20.12003,14.43819 1.69861,9.34235 -6.03006,18.88854 -15.38941,19.84826 a 15.763101,15.763101 0 0 1 -13.07929,-4.73912 18.07321,18.07321 0 0 1 -4.05968,-18.42992 c 1.97888,-5.46103 6.70951,-9.97084 12.40835,-11.10042 z"
     class="cls-2"
     id="path3260"
     inkscape:connector-curvature="0"
     style="fill:#2f1b72;stroke-width:0.84930497" />
  <path
     d="m 94.187923,164.05175 c -1.69861,7.38895 -3.949268,14.77791 -7.779634,21.36851 -2.760241,4.50981 -6.480197,9.34236 -12.068624,9.97934 a 8.866744,8.866744 0 0 0 0.959715,-2.02984 c 1.80902,-6.08952 5.367608,-11.38918 8.764827,-16.71432 a 116.67752,116.67752 0 0 1 10.19166,-12.62917 z"
     class="cls-3"
     id="path3262"
     inkscape:connector-curvature="0"
     style="fill:#fdfcfb;stroke-width:0.84930497" />
  <path
     d="m 52.750333,164.34051 a 156.55239,156.55239 0 0 1 16.408572,22.82932 c 1.579707,2.59038 2.420519,5.52898 3.550095,8.34018 -5.359115,-0.7304 -9.130029,-5.0109 -11.839312,-9.34236 -4.000226,-6.65855 -6.429238,-14.20887 -8.119355,-21.81864 z"
     class="cls-3"
     id="path3264"
     inkscape:connector-curvature="0"
     style="fill:#fdfcfb;stroke-width:0.84930497" />
  <path
     d="m 49.370099,209.83778 v 0 a 15.380913,15.380913 0 0 1 5.579934,1.3504 5.2911701,5.2911701 0 0 0 5.019392,0.16986 c 2.930102,-1.52026 6.590607,-2.08929 9.69057,-0.56904 a 7.6437449,7.6437449 0 0 0 4.67967,1.01917 c 1.409847,-0.0594 2.598874,-0.95971 3.889817,-1.40985 a 12.323415,12.323415 0 0 1 4.849532,-0.50958 9.4952297,9.4952297 0 0 1 1.97888,0.39917 c 1.010673,0.39068 1.290944,0.73041 2.250659,1.07013 a 7.5163491,7.5163491 0 0 0 2.36956,0.28027 10.004813,10.004813 0 0 0 3.779408,-0.78985 15.363927,15.363927 0 0 1 3.889816,-1.12958 v 0 c 0,0.95971 0.05096,2.02984 0.05096,3.049 v 0 a 2.8706509,2.8706509 0 0 0 -1.350395,0.11041 8.4081194,8.4081194 0 0 0 -1.299437,0.45014 19.839764,19.839764 0 0 1 -3.040512,1.29943 6.7434816,6.7434816 0 0 1 -3.719956,0.051 13.690796,13.690796 0 0 1 -2.547914,-0.90026 11.227812,11.227812 0 0 1 -1.69861,-0.90027 5.8686974,5.8686974 0 0 0 -2.140249,-0.16986 5.6733573,5.6733573 0 0 0 -2.08929,0.56054 10.701243,10.701243 0 0 1 -5.639385,1.60519 18.243071,18.243071 0 0 1 -3.81338,-0.8493 c -1.239985,-0.45014 -1.180534,-0.62 -2.1997,-0.90027 -0.849305,-0.22931 -2.760241,-0.78985 -4.059677,-0.0594 a 9.7585143,9.7585143 0 0 1 -1.070125,0.61999 l -1.010673,0.50959 a 10.268097,10.268097 0 0 1 -2.598873,0.61999 14.191886,14.191886 0 0 1 -3.889817,-0.16986 c -2.029839,-0.28027 -3.609546,-1.85998 -5.749795,-1.69861 v 0 A 30.303202,30.303202 0 0 1 49.3701,209.83787 Z"
     class="cls-3"
     id="path3270"
     inkscape:connector-curvature="0"
     style="fill:#fdfcfb;stroke-width:0.84930497" />
  <path
     d="m 1.2994366,235.94542 c 0,0 8.5694873,1.20601 11.2787704,1.80052 3.626532,0.78986 7.236078,1.69861 10.77768,2.77723 4.170088,1.30793 8.569487,3.1849 11.253291,6.79444 a 6.5566345,6.5566345 0 0 1 1.367381,4.56926 c -0.212326,1.92792 -1.435325,2.60737 -2.547915,3.85585 1.817513,0.8493 4.246525,1.08711 6.233899,1.53724 q 3.210373,0.72191 6.420746,1.41834 6.429238,1.37587 12.909435,2.54791 c 8.628939,1.56272 17.308836,2.84518 26.031198,3.7879 q 12.026159,1.29944 24.128758,1.69861 c 4.67967,-0.11041 9.41879,0.28027 14.09846,0.11041 4.67967,-0.16986 9.46975,0.16986 14.20038,-0.39068 a 359.81655,359.81655 0 0 0 59.53628,-8.22976 c 3.49913,-0.7304 6.87937,-1.74957 10.42946,-2.42901 -0.67944,0.13588 -2.03833,-1.85998 -2.33559,-2.37806 a 5.9451349,5.9451349 0 0 1 -0.7219,-3.63502 c 0.34821,-2.47148 2.54791,-4.24653 4.53528,-5.53747 4.29749,-2.84517 9.13003,-4.17009 14.09847,-5.30816 4.96843,-1.13807 10.30207,-1.8345 15.43187,-2.75175 -0.84931,0.84931 -0.53506,2.76024 -0.90026,3.83037 a 30.574979,30.574979 0 0 1 -6.14897,10.48042 29.377459,29.377459 0 0 1 -8.05991,6.14897 c 2.02984,0.61999 9.46975,3.21037 12.79903,10.42947 a 15.126122,15.126122 0 0 1 1.4608,4.90898 177.57269,177.57269 0 0 0 -18.37896,5.0109 c -1.63066,0.56903 -6.14047,1.69861 -7.83059,2.08929 0,3.32927 0,6.70951 0.051,10.03029 -2.36107,0.33972 -4.62022,0.95971 -6.93033,1.4693 A 394.55312,394.55312 0 0 1 137.00139,300 H 102.24783 A 400.14155,400.14155 0 0 1 30.557993,289.4941 c -0.738895,-0.16986 -1.528749,-0.28027 -2.259151,-0.39918 -0.05096,-3.32078 -0.05096,-6.70101 0,-10.03029 A 110.98718,110.98718 0 0 0 9.4102992,273.3658 C 6.1489681,272.69484 2.9301022,272.18526 0,271.84554 c 0.14438185,0 3.6859836,-5.78377 4.1531014,-6.34431 A 32.842624,32.842624 0 0 1 15.839538,256.62599 C 10.047278,252.62577 4.1870736,246.9609 1.9194293,240.124 a 31.110042,31.110042 0 0 1 -0.6199927,-4.17858 z"
     class="cls-1"
     id="path3272"
     inkscape:connector-curvature="0"
     style="fill:#b79542;stroke-width:0.84930497" />
  <path
     d="m 5.0024064,239.59743 a 78.985364,78.985364 0 0 1 15.2874896,3.26982 c 4.560768,1.85998 9.520709,3.39722 12.849985,7.2191 0.229312,2.9301 -2.870651,4.00022 -5.09583,4.84953 -0.169861,6.98978 0,13.92011 -0.05945,20.96934 a 55.960705,55.960705 0 0 1 -5.945135,-2.02984 c -5.579933,-2.02984 -11.329728,-3.77941 -17.3003422,-3.88982 a 28.298842,28.298842 0 0 1 6.8708772,-7.64374 c 3.779407,-2.8197 9.529202,-5.09583 9.342355,-5.52049 -0.186847,-0.42465 -6.709509,-4.62871 -9.979334,-8.06839 a 28.995272,28.995272 0 0 1 -5.9706136,-9.15551 z"
     class="cls-4"
     id="path3274"
     inkscape:connector-curvature="0"
     style="fill:#d9342d;stroke-width:0.84930497" />
  <path
     d="m 220.19081,242.90123 a 84.6842,84.6842 0 0 1 14.37873,-3.26983 35.543414,35.543414 0 0 1 -6.25937,9.58865 34.311921,34.311921 0 0 1 -10.76919,8.00046 0.0509583,0.0509583 0 0 1 0.051,0.0594 h -0.051 a 26.965433,26.965433 0 0 1 10.59933,5.41007 26.65119,26.65119 0 0 1 6.19992,7.38896 c -0.46712,-0.84931 -7.24457,1.13806 -8.15333,1.35039 -5.03637,1.16355 -9.75851,3.10846 -14.67599,4.62022 -0.50958,-6.93033 0.051,-13.97956 -0.28876,-20.96934 a 25.088469,25.088469 0 0 0 -2.26764,-1.39286 4.0426917,4.0426917 0 0 1 -1.69861,-2.34408 c -0.28028,-2.25066 3.33776,-4.00023 4.8835,-4.91748 a 41.13184,41.13184 0 0 1 8.05141,-3.52461 z"
     class="cls-4"
     id="path3276"
     inkscape:connector-curvature="0"
     style="fill:#d9342d;stroke-width:0.84930497" />
  <path
     d="m 31.211958,264.8048 c 0.05945,-2.02984 -0.169861,-4.05968 0.229313,-6.08952 a 383.32531,383.32531 0 0 0 65.846615,10.42947 366.594,366.594 0 0 0 44.478104,0.051 c 22.38768,-1.3504 44.48659,-5.09583 66.24579,-10.37002 0.22931,9.46975 -0.11041,18.93951 0.16986,28.40926 a 446.07196,446.07196 0 0 1 -71.25669,9.80947 c -5.41857,0.28876 -10.76919,0.16986 -16.18775,0.45862 -30.099372,0 -60.096824,-4.05967 -89.525242,-10.19166 -0.110409,-7.51635 0,-15.01571 0,-22.50658 z"
     class="cls-4"
     id="path3278"
     inkscape:connector-curvature="0"
     style="fill:#d9342d;stroke-width:0.84930497" />
  <path
     d="m 133.98635,285.0947 a 19.754834,19.754834 0 0 1 4.79858,-2.98956 53.395804,53.395804 0 0 1 0.16986,6.70951 c -1.29944,-1.63066 -3.15942,-2.64983 -4.96844,-3.71995 z"
     class="cls-4"
     id="path3288"
     inkscape:connector-curvature="0"
     style="fill:#d9342d;stroke-width:0.84930497" />
  <path
     d="m 100.4473,284.30484 c 1.57971,-0.61999 3.15942,-2.14024 4.90049,-1.74956 0.1189,2.02983 -0.051,4.17858 0.1189,6.20842 -1.5797,-1.52875 -3.32927,-3.04901 -5.01939,-4.45886 z"
     class="cls-4"
     id="path3290"
     inkscape:connector-curvature="0"
     style="fill:#d9342d;stroke-width:0.84930497" />
  <path
     d="m 112.50743,48.147099 c 1.29944,-1.29944 2.64983,-2.709283 4.00872,-4.170088 2.64983,-2.819692 5.0109,-5.698836 7.10019,-8.348668 -0.45013,0.569034 0,3.049005 0,3.81338 a 48.92846,48.92846 0 0 0 0.15288,5.231718 43.824137,43.824137 0 0 0 3.89831,13.223678 c 0.91724,2.0808 1.90244,4.13612 2.86215,6.20842 1.33341,2.87914 2.54792,5.33364 2.64983,8.56949 0.19534,7.80511 -6.31882,12.97738 -9.164,19.65291 -1.40984,3.31229 -0.93423,6.33582 -0.90875,9.792491 -4.24653,-1.02766 -7.97498,-4.628711 -10.6333,-7.957991 a 21.309062,21.309062 0 0 1 -4.80707,-12.73957 c 0,-3.75393 1.47779,-7.24457 1.78354,-10.93905 a 40.766639,40.766639 0 0 0 -0.65396,-9.80098 c -0.74739,-4.84104 0.16986,-8.99414 3.71146,-12.53574 z"
     class="cls-1"
     id="path3224"
     inkscape:connector-curvature="0"
     style="fill:#b79542;stroke-width:0.84930497" />
  <path
     d="m 113.23783,53.565669 0.18685,-0.46712 c 1.75806,-4.24653 5.23172,-7.575803 8.27223,-10.930557 -0.67095,0.747388 -0.51807,3.201879 -0.50958,4.127622 a 20.561674,20.561674 0 0 0 0.63698,4.773095 c 1.20601,4.892 3.79639,9.25742 5.94513,13.76723 2.14874,4.50981 3.58407,9.5377 0.96821,14.20887 -3.28681,5.8687 -8.84976,11.62699 -8.11086,18.88005 a 31.899895,31.899895 0 0 1 -4.33995,-4.24652 38.915154,38.915154 0 0 1 -2.54792,-3.669 15.618719,15.618719 0 0 1 -2.54791,-9.07907 c 0.16137,-4.56926 1.93641,-8.93469 1.69861,-13.52943 -0.23781,-4.59474 -1.31642,-9.32537 0.34821,-13.83517 z"
     class="cls-4"
     data-name="path3224"
     id="path3224-2"
     inkscape:connector-curvature="0"
     style="fill:#d9342d;stroke-width:0.84930497" />
  <path
     d="m 49.030377,202.44883 v 0 a 16.000906,16.000906 0 0 1 5.579934,1.38437 5.2656909,5.2656909 0 0 0 5.019392,0.16986 c 2.989554,-1.52026 6.5991,-2.14025 9.639612,-0.50959 a 8.5355151,8.5355151 0 0 0 4.739121,1.01917 c 1.460805,-0.11041 2.547915,-1.01917 3.889817,-1.40985 a 12.213006,12.213006 0 0 1 4.841039,-0.50958 7.2700507,7.2700507 0 0 1 1.919429,0.45013 c 1.019166,0.33972 1.299437,0.7389 2.1997,1.07013 a 6.0045862,6.0045862 0 0 0 2.369561,0.33972 10.760694,10.760694 0 0 0 3.830365,-0.84931 14.769414,14.769414 0 0 1 4.00872,-1.12957 v 0 c 0,1.01067 0,2.02984 0.05096,3.04051 v 0 a 5.8771905,5.8771905 0 0 0 -1.350395,0.1189 7.5758005,7.5758005 0 0 0 -1.299436,0.45013 c -1.010673,0.50109 -2.369561,1.07013 -3.040512,1.3504 a 6.9473148,6.9473148 0 0 1 -3.719956,0.11041 8.4930499,8.4930499 0 0 1 -2.547915,-0.95972 c -0.789854,-0.33122 -1.299437,-0.67095 -1.69861,-0.8493 a 5.7582878,5.7582878 0 0 0 -2.140249,-0.16986 9.877417,9.877417 0 0 0 -2.148741,0.50958 10.361521,10.361521 0 0 1 -5.690344,1.57971 11.983693,11.983693 0 0 1 -3.779407,-0.95972 c -1.180534,-0.45013 -1.180534,-0.56903 -2.1997,-0.95971 -0.849305,-0.22931 -2.760241,-0.7304 -4.059678,-0.0595 A 9.2744104,9.2744104 0 0 1 62.322,206.24522 c -0.05945,0 -0.569035,0.28027 -1.019166,0.50109 a 15.228038,15.228038 0 0 1 -2.547915,0.67945 15.134615,15.134615 0 0 1 -4.00872,-0.16986 c -2.029839,-0.33973 -3.601053,-1.85998 -5.749794,-1.69861 v 0 c 0.03397,-1.07862 0.03397,-2.09779 0.03397,-3.10846 z"
     class="cls-3"
     data-name="path3270"
     id="path3270-2"
     inkscape:connector-curvature="0"
     style="fill:#fdfcfb;stroke-width:0.84930497" />
  <path
     id="path39"
     d="m 176.49407,172.51083 h -3.39722 v 18.94799 l -0.61999,-0.45862 v 0 c -0.84931,-3.09997 -2.25066,-5.41007 -4.3994,-6.79444 a 5.452538,5.452538 0 0 1 -1.97039,1.80052 5.8856835,5.8856835 0 0 1 -2.87914,0.67945 4.764601,4.764601 0 0 1 -1.85998,-0.45013 5.9451349,5.9451349 0 0 1 -1.85998,-1.07013 c -0.56054,-0.50958 -1.18053,-1.01916 -1.80053,-1.69861 a 18.047731,18.047731 0 0 1 -1.5797,-2.1997 17.359794,17.359794 0 0 1 -1.40985,-3.49913 42.465249,42.465249 0 0 1 -0.84931,-4.24653 l 1.07013,0.45013 a 30.753334,30.753334 0 0 0 1.18053,4.05968 14.106956,14.106956 0 0 0 1.80902,3.15092 8.3741472,8.3741472 0 0 0 2.31011,2.02984 4.8240523,4.8240523 0 0 0 2.54792,0.7389 c 2.14874,0 3.43968,-0.56904 4.24652,-1.85998 a 5.1637743,5.1637743 0 0 0 0.67945,-2.64983 2.8536648,2.8536648 0 0 0 -0.11041,-0.95972 4.0257056,4.0257056 0 0 0 -0.67945,-1.40984 6.2508847,6.2508847 0 0 0 -0.7304,-0.95972 3.7199558,3.7199558 0 0 0 -1.12958,-0.61999 1.8260057,1.8260057 0 0 0 -1.07012,0.16986 2.1827138,2.1827138 0 0 1 0.61999,1.40985 2.0213459,2.0213459 0 0 1 -0.33972,1.12957 3.7794072,3.7794072 0 0 1 -0.90026,0.95122 2.4375053,2.4375053 0 0 1 -2.14025,0.50959 2.6922968,2.6922968 0 0 1 -1.86847,-1.18054 2.89613,2.89613 0 0 1 -0.33123,-1.35889 2.4544914,2.4544914 0 0 1 0.45013,-1.40135 4.3993998,4.3993998 0 0 1 0.95971,-1.12957 5.5119894,5.5119894 0 0 1 3.04052,-1.07013 6.7944399,6.7944399 0 0 1 1.46929,0.22082 6.5226623,6.5226623 0 0 1 1.91094,1.12958 7.2530646,7.2530646 0 0 1 1.63916,1.80052 6.3273221,6.3273221 0 0 1 0.8493,3.39722 9.4782436,9.4782436 0 0 1 -0.45013,2.76024 l 2.36956,2.14025 v -12.34889 h -17.77595 l -1.80053,-1.74108 h 22.93124 z"
     class="cls-5"
     inkscape:connector-curvature="0"
     style="fill:#ffffff;stroke-width:0.84930497" />
  <path
     id="path41"
     d="m 50.270362,271.50582 c -0.849305,3.60954 -1.299437,5.41856 -2.1997,8.96866 a 1.5202559,1.5202559 0 0 0 1.172041,1.18053 3.6435184,3.6435184 0 0 0 2.870651,-0.8493 5.0193925,5.0193925 0 0 0 1.919429,-2.36956 1.8854571,1.8854571 0 0 1 -0.509583,-0.0595 5.5289755,5.5289755 0 0 1 -0.560541,-0.22082 3.4991365,3.4991365 0 0 1 -0.509583,-0.45014 0.84930499,0.84930499 0 0 1 -0.280271,-0.61999 1.3164227,1.3164227 0 0 1 0,-0.67944 1.4862837,1.4862837 0 0 1 0.789854,-1.12958 1.8854571,1.8854571 0 0 1 1.350395,-0.22082 2.2676443,2.2676443 0 0 1 1.69861,1.52026 c 0.05945,0.33972 0.169861,0.67944 0.288763,1.12957 a 7.4738839,7.4738839 0 0 1 -0.05945,1.18054 5.4100728,5.4100728 0 0 1 -2.547915,3.39722 5.0958299,5.0958299 0 0 1 -4.246525,1.07012 2.8366787,2.8366787 0 0 1 -1.970387,-1.29094 3.6605045,3.6605045 0 0 1 -0.509583,-2.36956 c 0.849305,-3.43969 1.299436,-5.09583 2.148741,-8.62894 a 15.346941,15.346941 0 0 1 -2.029839,-0.50109 9.6735838,9.6735838 0 0 1 -0.908756,-1.63916 c 4.739122,1.18053 7.108683,1.74957 11.89027,2.81969 0.450131,0.67945 0.679444,0.90027 1.129575,1.63067 -3.685983,-0.62849 -5.48651,-1.01917 -8.926195,-1.86847 z"
     class="cls-6"
     inkscape:connector-curvature="0"
     style="fill:#fffdfd;stroke-width:0.84930497" />
  <path
     id="path43"
     d="m 61.659542,273.82442 c -1.070124,5.41007 -1.579707,8.11086 -2.709283,13.58888 a 14.59106,14.59106 0 0 1 -1.129576,-1.63067 c 0.789854,-3.88981 1.189027,-5.74979 1.978881,-9.63961 a 3.7114628,3.7114628 0 0 0 0,-1.07012 1.8260057,1.8260057 0 0 0 -0.509583,-0.90876 c -0.280271,-0.28027 -0.509583,-0.50109 -0.849305,-0.78985 a 6.131982,6.131982 0 0 0 -1.129576,-0.45013 15.414885,15.414885 0 0 1 -1.070124,-1.63067 6.480197,6.480197 0 0 0 0.789854,0.11041 5.3930867,5.3930867 0 0 0 1.070124,0.16986 3.3972199,3.3972199 0 0 1 1.460805,0.95972 3.5246157,3.5246157 0 0 1 0.789853,1.91943 c 0.05945,-0.22932 0.05945,-0.56904 0.169861,-1.01917 0.11041,-0.45013 0.05945,-0.8493 0.169861,-1.35039 a 6.0640376,6.0640376 0 0 0 0.169861,-1.35889 3.0065396,3.0065396 0 0 1 0.169861,-0.90027 2.1062764,2.1062764 0 0 1 0.450132,0.50959 9.9283753,9.9283753 0 0 0 0.05945,1.23998 3.2188659,3.2188659 0 0 0 0.280271,0.90027 c 0.11041,0 0.169861,0.0595 0.280271,0.0595 0.110409,0 0.229312,0.0594 0.339722,0.0594 0.169861,0.28027 0.339722,0.56054 0.509583,0.90026 l 0.331228,0.67095 a 4.5862469,4.5862469 0 0 0 -0.951221,-0.22082 3.065991,3.065991 0 0 1 -0.670951,-0.1189 z"
     class="cls-6"
     inkscape:connector-curvature="0"
     style="fill:#fffdfd;stroke-width:0.84930497" />
  <path
     id="path45"
     d="m 73.328992,276.18549 c -0.110409,0.45013 -0.110409,0.56903 -0.169861,0.90875 a 4.4588512,4.4588512 0 0 1 3.550095,2.47998 5.7243156,5.7243156 0 0 1 0.849305,3.88981 5.5544546,5.5544546 0 0 1 -0.339722,0.90027 6.6670441,6.6670441 0 0 1 -0.619992,0.78985 1.7665544,1.7665544 0 0 1 -0.730403,0.45013 5.2062396,5.2062396 0 0 1 -0.959714,0.0595 0.89177023,0.89177023 0 0 1 -0.679444,-0.28876 0.78136059,0.78136059 0 0 1 -0.509583,-0.45013 1.1210826,1.1210826 0 0 1 -0.331229,-0.56054 2.8281856,2.8281856 0 0 1 -0.05945,-0.67945 1.3164227,1.3164227 0 0 1 0.560542,-1.01067 1.69861,1.69861 0 0 1 1.299436,-0.28027 1.5882003,1.5882003 0 0 1 0.789854,0.33123 c 0.169861,0.16986 0.450132,0.33972 0.509583,0.61999 0.05096,-0.051 0.05096,-0.16986 0.169861,-0.28027 a 3.3377686,3.3377686 0 0 0 -0.789854,-2.59038 4.4843303,4.4843303 0 0 0 -3.049005,-1.63916 c -0.67095,4.3994 -1.010672,6.53965 -1.69861,10.93905 a 0.2887637,0.2887637 0 0 1 -0.220819,-0.16986 0.29725674,0.29725674 0 0 1 -0.169861,-0.28027 14.98174,14.98174 0 0 0 -0.849305,-2.36956 11.89027,11.89027 0 0 0 -1.180534,-2.02984 7.6437449,7.6437449 0 0 0 -3.889817,-2.8197 c -0.569034,-1.01067 -0.908756,-1.63066 -1.528749,-2.59038 a 28.196926,28.196926 0 0 1 8.628939,-2.59038 6.5651275,6.5651275 0 0 1 0.169861,-1.07012 c -3.550095,-0.61999 -5.359114,-0.84931 -8.7988,-1.63916 -0.220819,-0.33972 -0.501089,-0.67944 -0.730402,-1.01067 a 3.244345,3.244345 0 0 0 -0.39068,-0.56904 c 2.819692,0.56904 5.690343,1.12958 8.679897,1.63916 2.989553,0.50958 5.690343,0.90027 8.399626,1.23999 0.509583,0.56054 0.789854,0.90026 1.299437,1.52025 a 48.410384,48.410384 0 0 1 -7.2106,-0.8493 z m -1.859977,2.70928 c -0.849305,0.16986 -1.80902,0.45013 -2.709283,0.67945 -0.900264,0.22931 -1.859978,0.67095 -2.989554,1.07012 a 9.8604309,9.8604309 0 0 1 4.3994,5.24021 h 0.05945 c 0.560542,-2.76024 0.789854,-4.11063 1.239987,-6.98978 z"
     class="cls-6"
     inkscape:connector-curvature="0"
     style="fill:#fffdfd;stroke-width:0.84930497" />
  <path
     id="path47"
     d="m 83.214902,277.37452 -1.698609,13.80969 a 13.155734,13.155734 0 0 1 -1.180534,-1.52025 c 0.50109,-3.88982 0.789853,-5.86021 1.290943,-9.75852 a 3.2273589,3.2273589 0 0 0 -0.05096,-1.07012 2.1232625,2.1232625 0 0 0 -0.619993,-0.90026 3.1848937,3.1848937 0 0 0 -0.908756,-0.67095 3.0574979,3.0574979 0 0 0 -1.010673,-0.28877 l -0.169861,-0.8493 -0.169861,-0.67945 a 2.6158594,2.6158594 0 0 1 0.619993,0.0595 3.5500948,3.5500948 0 0 1 1.919429,0.84931 2.9810605,2.9810605 0 0 1 0.849305,1.85998 c 0,-0.28027 0.05945,-0.62 0.05945,-1.01068 0,-0.39068 0.11041,-0.8493 0.11041,-1.40984 0,-0.56054 0.05945,-1.01917 0.05945,-1.3504 0,-0.33123 0.05945,-0.67944 0.05945,-1.01916 a 3.2103728,3.2103728 0 0 0 0.450131,0.45013 3.3122894,3.3122894 0 0 0 0.619993,2.14025 7.0152592,7.0152592 0 0 1 1.180534,0.16986 c 0.509583,0.56903 0.679444,0.8493 1.189027,1.40984 -1.044645,-0.051 -1.545735,-0.11041 -2.598874,-0.22081 z"
     class="cls-6"
     inkscape:connector-curvature="0"
     style="fill:#fffdfd;stroke-width:0.84930497" />
  <path
     id="path49"
     d="m 108.5072,276.75452 a 10.420972,10.420972 0 0 0 -1.46929,-1.18902 10.19166,10.19166 0 0 0 -1.69861,-1.18054 7.9664808,7.9664808 0 0 0 -1.85998,-0.8493 8.0514113,8.0514113 0 0 0 -2.02984,-0.33123 6.3273221,6.3273221 0 0 0 -3.159414,0.8493 c -1.180534,0.67945 -1.919429,1.4693 -2.029839,2.36956 a 11.227812,11.227812 0 0 0 0.450132,1.29944 l 0.339722,0.051 a 5.0958299,5.0958299 0 0 0 0.58602,0.051 3.7284489,3.7284489 0 0 1 1.834499,1.46929 h -0.365201 -0.475611 l -0.730402,-0.0764 -0.789854,-0.051 c -0.458625,5.52048 -0.628486,8.28072 -1.019166,13.75025 -0.509583,-0.56054 -0.849305,-0.84931 -1.350395,-1.40985 0.450132,-5.01939 0.560541,-7.55032 1.010673,-12.51026 -0.849305,-0.0595 -1.290944,-0.0595 -2.140249,-0.16986 -0.509582,-0.62 -0.730402,-0.84931 -1.180533,-1.4693 1.460804,0.16986 2.191206,0.16986 3.601053,0.33972 -0.331229,-0.33972 -0.50109,-0.56054 -0.849305,-0.90026 a 1.3419019,1.3419019 0 0 1 -0.450132,-1.07013 c 0.05096,-1.12957 0.789854,-2.02984 2.140249,-2.87914 a 6.4037596,6.4037596 0 0 1 3.550093,-1.12958 c 2.76024,0.16986 5.41007,1.69861 7.9495,4.3994 a 3.6010531,3.6010531 0 0 0 0.13588,0.63698 z"
     class="cls-6"
     inkscape:connector-curvature="0"
     style="fill:#fffdfd;stroke-width:0.84930497" />
  <path
     id="path51"
     d="m 109.22911,279.74408 c -0.16136,5.57993 -0.22082,8.39962 -0.50109,13.97956 a 10.667271,10.667271 0 0 1 -0.78985,-0.90027 1.6221725,1.6221725 0 0 0 -0.16986,-0.45013 3.1848937,3.1848937 0 0 0 -0.45013,-0.8493 5.4865102,5.4865102 0 0 0 -0.84931,-1.29944 7.3719673,7.3719673 0 0 0 -1.01067,-1.18903 9.1300286,9.1300286 0 0 0 -4.73912,-2.14025 l -1.698612,-2.54791 a 39.407751,39.407751 0 0 1 8.679902,-3.72845 v -0.90026 c -3.71996,-0.16986 -5.69035,-0.28027 -9.34236,-0.50959 -0.50109,-0.61999 -0.789853,-0.8493 -1.290943,-1.4608 1.613679,0.13589 3.261333,0.2463 4.934463,0.34821 q 4.45885,0.26329 8.6799,0.35671 l 0.49259,0.56904 c 0.21233,0.25479 0.41616,0.50958 0.60301,0.75588 h -1.08711 c -0.50958,0.017 -0.99369,0 -1.46081,-0.034 z m -1.4608,3.15941 a 27.797752,27.797752 0 0 0 -2.76024,1.01067 c -0.90876,0.39918 -1.91943,0.90876 -2.98956,1.40985 a 11.423152,11.423152 0 0 1 5.52049,4.84953 c 0.0594,-2.87065 0.16986,-4.3994 0.22931,-7.27005 z"
     class="cls-6"
     inkscape:connector-curvature="0"
     style="fill:#fffdfd;stroke-width:0.84930497" />
  <path
     id="path53"
     d="m 124.29578,279.79503 c 0.11041,5.57994 0.16987,8.39963 0.22082,13.97956 -0.2378,-0.19534 -0.4841,-0.41615 -0.73889,-0.65396 -0.25479,-0.23781 -0.67095,-0.65397 -0.67095,-0.65397 0,-1.39286 0,-2.78572 -0.0425,-4.17008 l -0.0679,-4.11064 v -0.27178 a 3.5585879,3.5585879 0 0 0 -0.90027,-2.02984 2.547915,2.547915 0 0 0 -1.80901,-1.18902 1.4862837,1.4862837 0 0 0 -1.01068,0.33972 c -0.33972,0.28027 -0.50958,0.50958 -0.50958,0.78985 1.4693,1.01917 2.1997,1.74957 2.1997,2.47997 a 1.7580613,1.7580613 0 0 1 -0.50958,1.35889 2.9895535,2.9895535 0 0 1 -1.3504,0.78136 2.0977833,2.0977833 0 0 1 -1.29944,-0.45013 1.8429918,1.8429918 0 0 1 -0.8493,-1.18053 2.2846304,2.2846304 0 0 1 -2.31011,1.63916 1.6306656,1.6306656 0 0 1 -1.29944,-0.56904 1.7750474,1.7750474 0 0 1 -0.40766,-1.36738 2.208193,2.208193 0 0 1 0.16986,-0.90026 6.6160858,6.6160858 0 0 1 0.50109,-0.84931 3.1169493,3.1169493 0 0 1 0.78985,-0.67944 c 0.33972,-0.16986 0.61999,-0.33123 0.90876,-0.45013 a 4.1021431,4.1021431 0 0 0 -2.3186,-1.74108 3.8048863,3.8048863 0 0 0 -1.69861,-0.0849 l -0.57753,-0.59451 c -0.2463,-0.26329 -0.50109,-0.51808 -0.75588,-0.77287 a 16.561447,16.561447 0 0 1 2.41202,0.14438 4.9089828,4.9089828 0 0 1 2.66682,0.84931 3.3292755,3.3292755 0 0 1 0.56054,0.58602 3.5076296,3.5076296 0 0 1 0.61999,1.39286 c 0.84931,-1.74957 2.02984,-2.70929 3.49914,-2.70929 0.50958,0 1.18053,0.45014 1.91943,1.3504 a 6.7944399,6.7944399 0 0 1 1.49478,2.16573 v 0 c -0.0595,-2.36956 -0.16986,-3.55859 -0.33973,-5.8687 0.33973,0.33972 0.50959,0.45013 0.84931,0.78985 a 1.69861,1.69861 0 0 0 0.90026,1.29944 1.6051864,1.6051864 0 0 0 0.99369,0.0934 8.4251055,8.4251055 0 0 0 0.66246,1.18054 l -1.13807,0.051 z m 0.28028,16.0094 a 4.424879,4.424879 0 0 1 -1.69861,-1.40984 4.8750106,4.8750106 0 0 0 -1.40985,-1.52026 3.0574979,3.0574979 0 0 0 -1.35889,-0.50958 c -0.56054,-0.051 -1.07012,-0.16137 -1.69861,-0.22082 -0.61999,-0.78985 -0.8493,-1.12958 -1.35889,-1.85998 l 3.15942,-2.02984 2.87914,-1.74957 1.39286,1.47779 z m -1.52026,-7.2106 c -0.45013,0.28027 -0.90876,0.50109 -1.52875,0.90027 -0.61999,0.39917 -1.35039,0.78985 -2.14025,1.29943 a 7.2445715,7.2445715 0 0 1 1.91943,0.78986 10.132208,10.132208 0 0 1 1.80053,1.52025 c 0.0255,-1.79203 0.0255,-2.64133 -0.051,-4.50981 z"
     class="cls-6"
     inkscape:connector-curvature="0"
     style="fill:#fffdfd;stroke-width:0.84930497" />
  <path
     id="path55"
     d="m 140.47504,276.18549 c -0.45013,-0.33123 -0.95971,-0.67095 -1.52025,-1.01067 -0.56054,-0.33973 -1.18903,-0.67945 -1.86847,-1.01917 a 8.4335985,8.4335985 0 0 0 -1.97039,-0.67095 c -0.67944,-0.0594 -1.35039,-0.16986 -2.02984,-0.16986 a 5.6988365,5.6988365 0 0 0 -3.04051,1.18053 c -1.07012,0.78985 -1.74957,1.69861 -1.74957,2.59887 a 12.739575,12.739575 0 0 0 0.61999,1.29095 l 0.84931,-0.0594 h 0.8493 a 1.5712142,1.5712142 0 0 0 0.0679,0.39068 1.2909436,1.2909436 0 0 0 0.14438,0.30575 0.84930499,0.84930499 0 0 0 0.11041,0.33123 1.1295756,1.1295756 0 0 0 0.17835,0.22931 h -0.56903 l -1.07862,0.051 c 0.16986,5.52897 0.22931,8.28921 0.45013,13.86915 -0.61999,-0.50959 -0.95122,-0.78986 -1.52025,-1.29095 -0.16986,-5.01939 -0.16986,-7.55881 -0.33972,-12.51875 -0.84931,0 -1.29095,0 -2.14025,0.0595 a 15.28749,15.28749 0 0 1 -1.3504,-1.29944 c 1.46081,0 2.1997,0 3.66051,-0.0595 -0.45013,-0.33972 -0.62,-0.50109 -1.01068,-0.8493 a 1.69861,1.69861 0 0 1 -0.61999,-1.01917 3.9322821,3.9322821 0 0 1 1.74957,-3.04051 5.7413017,5.7413017 0 0 1 3.39722,-1.4693 c 2.81969,-0.051 5.57993,1.01917 8.39963,3.5501 a 1.69861,1.69861 0 0 1 0.33122,0.61999 z"
     class="cls-6"
     inkscape:connector-curvature="0"
     style="fill:#fffdfd;stroke-width:0.84930497" />
  <path
     id="path57"
     d="m 141.81695,279.06463 c 0.45013,5.57994 0.61999,8.39963 1.01916,13.86915 l -0.8493,-0.8493 a 1.876964,1.876964 0 0 1 -0.22931,-0.45013 l -0.50109,-0.78986 a 10.658778,10.658778 0 0 0 -2.1997,-2.1997 9.2489313,9.2489313 0 0 0 -4.90899,-1.63066 c -0.7304,-0.90027 -1.18053,-1.40985 -1.91093,-2.36956 a 45.437817,45.437817 0 0 1 8.28072,-4.67967 2.0977833,2.0977833 0 0 0 -0.11041,-0.90027 c -1.23999,0.11041 -2.47997,0.16986 -3.71996,0.22082 -1.91942,0.1189 -3.83036,0.16986 -5.69034,0.28877 -0.16986,-0.16987 -0.39917,-0.33973 -0.56903,-0.50959 a 9.8689239,9.8689239 0 0 1 -0.73041,-0.7304 c 2.02984,-0.0595 4.17009,-0.1189 6.36979,-0.28876 2.1997,-0.16986 4.3994,-0.28027 6.4802,-0.50109 a 9.1215355,9.1215355 0 0 1 1.63916,0.90026 c 0.16986,0.11041 0.28027,0.22082 0.39068,0.28027 -1.06163,0.16986 -1.68163,0.22931 -2.76024,0.33972 z m -1.12958,3.21037 a 20.094556,20.094556 0 0 0 -2.64983,1.35889 c -0.90026,0.50109 -1.85998,1.12109 -2.76024,1.74108 a 11.626985,11.626985 0 0 1 5.94513,4.24652 c -0.18684,-2.94709 -0.25479,-4.46734 -0.52657,-7.34649 z"
     class="cls-6"
     inkscape:connector-curvature="0"
     style="fill:#fffdfd;stroke-width:0.84930497" />
  <path
     id="path59"
     d="m 146.91278,278.6145 c 0.22931,2.47997 0.33972,3.71996 0.61999,6.14048 0.45862,-0.56055 0.95971,-1.07013 1.4693,-1.63067 0.50958,-0.56054 1.07012,-0.90026 1.5797,-1.40985 0.50959,-0.50958 1.07013,-0.8493 1.57971,-1.18053 a 13.036832,13.036832 0 0 1 1.46081,-0.84931 c 1.01916,0.56055 1.40984,0.84931 2.42901,1.3504 a 15.211052,15.211052 0 0 0 -1.18903,6.70951 20.960847,20.960847 0 0 0 1.01917,3.94927 c -0.45013,-0.16986 -0.62,-0.16986 -1.01917,-0.33972 -0.45013,-1.18054 -0.7304,-2.25916 -1.01067,-3.21038 a 16.773773,16.773773 0 0 1 -0.50958,-2.36956 12.493276,12.493276 0 0 1 0.0594,-3.55009 9.1894799,9.1894799 0 0 0 -3.09997,2.47997 11.9752,11.9752 0 0 0 -2.14025,3.39722 l -2.14874,-1.69861 c -0.28027,-3.15092 -0.45013,-4.67118 -0.67095,-7.77964 a 11.253291,11.253291 0 0 1 -1.40984,0.0595 c -0.62,-0.50958 -0.95972,-0.78985 -1.52875,-1.18053 5.41856,-0.45013 8.00894,-0.67944 13.41902,-1.35889 0.56903,0.45013 0.90026,0.67945 1.52025,1.18903 -4.12762,0.60301 -6.18294,0.88328 -10.42946,1.28245 z"
     class="cls-6"
     inkscape:connector-curvature="0"
     style="fill:#fffdfd;stroke-width:0.84930497" />
  <path
     id="path61"
     d="m 161.86904,276.78 c -1.29095,0.28877 -1.85998,1.29944 -1.74957,2.81969 a 13.903123,13.903123 0 0 0 0.8493,3.55859 c 0.22932,0.78136 0.50959,1.46081 0.67945,2.02984 0.16986,0.56904 0.22082,1.12108 0.33972,1.52026 a 3.6095462,3.6095462 0 0 1 -0.16986,1.52025 4.9769272,4.9769272 0 0 1 -0.78985,1.52026 11.372194,11.372194 0 0 1 -1.18903,1.01916 6.98978,6.98978 0 0 1 -1.3504,0.78986 6.8453982,6.8453982 0 0 1 -0.8493,-0.45013 5.3591145,5.3591145 0 0 0 1.29943,-0.78986 2.6158594,2.6158594 0 0 0 1.01917,-1.01916 3.5500948,3.5500948 0 0 0 0.33123,-2.31011 10.038785,10.038785 0 0 0 -0.22082,-1.07013 c -0.16986,-0.45013 -0.33972,-0.90026 -0.61999,-1.52025 -0.50959,-1.07862 -0.7304,-2.02984 -0.95972,-2.59888 a 5.6988365,5.6988365 0 0 1 1.52026,-4.79008 c -0.90026,0.16987 -1.80053,0.28027 -2.70079,0.39068 l -1.23999,0.16987 c -0.28876,-0.22082 -0.56903,-0.45014 -0.90875,-0.67096 -0.33972,-0.22081 -0.50109,-0.33972 -0.7304,-0.50958 1.12957,-0.16986 2.25915,-0.33972 3.49913,-0.50958 0.90027,-0.11041 1.80053,-0.16986 2.64983,-0.28027 a 3.1764006,3.1764006 0 0 1 1.52026,0.39917 2.547915,2.547915 0 0 1 0.7304,0.56054 c -0.45013,0.11041 -0.62848,0.11041 -0.95971,0.22082 z"
     class="cls-6"
     inkscape:connector-curvature="0"
     style="fill:#fffdfd;stroke-width:0.84930497" />
  <path
     id="path63"
     d="m 164.89256,276.49124 c 0.33972,2.15723 0.72191,4.6372 1.06163,6.79444 l 1.07013,6.79444 a 18.166634,18.166634 0 0 0 -1.57971,-1.12958 c -0.61999,-3.88981 -0.8493,-5.8602 -1.4608,-9.75002 a 1.69861,1.69861 0 0 0 -0.45014,-1.07012 9.5971463,9.5971463 0 0 0 -0.73889,-0.78986 7.0747105,7.0747105 0 0 0 -1.01067,-0.45013 3.923789,3.923789 0 0 0 -1.18054,0 c -0.56903,-0.45013 -0.90875,-0.67944 -1.52875,-1.12957 a 6.8453982,6.8453982 0 0 0 1.52875,-0.22932 4.3569346,4.3569346 0 0 1 2.02135,0.22932 4.0511848,4.0511848 0 0 1 1.35889,1.63066 4.7985732,4.7985732 0 0 0 -0.16986,-1.01067 c -0.11041,-0.45013 -0.16987,-0.84931 -0.33973,-1.3504 -0.16986,-0.50109 -0.16986,-0.90875 -0.22931,-1.35888 a 3.1084562,3.1084562 0 0 1 -0.16137,-0.90027 4.2465249,4.2465249 0 0 1 0.50109,0.33972 4.7985732,4.7985732 0 0 0 1.27396,2.02984 l 0.61999,-0.11041 0.65397,-0.0934 0.42465,0.32274 c 0.39917,0.28876 0.78985,0.54355 1.16355,0.77286 l -1.08711,0.16137 z"
     class="cls-6"
     inkscape:connector-curvature="0"
     style="fill:#fffdfd;stroke-width:0.84930497" />
  <path
     id="path65"
     d="m 179.09294,273.70552 c 1.07013,5.52897 1.69861,8.22976 2.76024,13.69929 a 8.170314,8.170314 0 0 0 -1.69861,-0.90027 c -0.61999,-2.98955 -0.8493,-4.50981 -1.46929,-7.43991 a 1.4438185,1.4438185 0 0 0 -0.73041,-1.07012 1.9109362,1.9109362 0 0 0 -1.31642,-0.27178 c -0.73889,0.16986 -1.07012,0.67095 -0.90876,1.63067 0,0.16986 0.16987,0.50958 0.22932,0.78985 a 1.367381,1.367381 0 0 0 -0.50959,0.33972 2.9301022,2.9301022 0 0 0 -1.4608,-1.52025 3.7369419,3.7369419 0 0 0 -2.1997,-0.33973 2.038332,2.038332 0 0 0 -0.90026,0.33973 c -0.22932,0.16986 -0.50959,0.45013 -0.78986,0.67095 -0.28027,0.22082 -0.33972,0.61999 -0.45013,0.8493 a 5.8177392,5.8177392 0 0 0 -0.0594,1.01067 c 0.16986,1.07013 0.90026,1.63916 2.36956,1.52875 a 2.1657277,2.1657277 0 0 1 -0.67944,-1.01916 1.1465617,1.1465617 0 0 1 0.33972,-1.12958 1.358888,1.358888 0 0 1 1.01067,-0.56054 1.9024432,1.9024432 0 0 1 2.31011,1.65615 2.4035331,2.4035331 0 0 1 -0.33972,1.35888 2.547915,2.547915 0 0 1 -1.57971,0.84931 8.008946,8.008946 0 0 1 -1.69861,0 4.5013164,4.5013164 0 0 1 -1.47779,-0.50958 3.4991365,3.4991365 0 0 1 -1.01067,-1.01917 4.0172126,4.0172126 0 0 1 -0.50958,-1.52026 4.5352886,4.5352886 0 0 1 0.33972,-2.59038 2.6583246,2.6583246 0 0 1 2.02984,-1.66463 4.085157,4.085157 0 0 1 3.43968,1.18053 1.69861,1.69861 0 0 1 0.33123,-1.18053 2.0892903,2.0892903 0 0 1 1.01917,-0.78986 c 1.07012,-0.28027 2.14024,0.33972 2.98955,1.69861 -0.28027,-1.4608 -0.45013,-2.14025 -0.67944,-3.55009 -1.91943,0.39917 -3.88982,0.7304 -5.94514,1.12957 l -4.84953,0.84931 a 4.3229624,4.3229624 0 0 1 -0.61999,-0.50109 2.9555813,2.9555813 0 0 1 -0.50959,-0.67945 c 3.43969,-0.45013 5.8687,-0.90026 7.44841,-1.18053 l 6.14047,-1.23999 c 0.0594,0 0.50959,-0.1189 0.56904,-0.1189 0.28027,0.16986 0.50109,0.33972 0.78985,0.50958 0.28877,0.16987 0.50109,0.33973 0.78136,0.50959 a 6.2423916,6.2423916 0 0 0 -2.50545,0.19534 z"
     class="cls-6"
     inkscape:connector-curvature="0"
     style="fill:#fffdfd;stroke-width:0.84930497" />
  <path
     id="path67"
     d="m 191.50129,271.14911 c 1.35889,5.52898 2.02984,8.17881 3.39722,13.70778 a 6.5056762,6.5056762 0 0 1 -2.02984,-1.63916 8.7478413,8.7478413 0 0 0 -2.59887,-1.91943 8.0344252,8.0344252 0 0 0 -4.39091,-0.33122 c -0.90876,-0.78986 -1.40985,-1.12958 -2.36956,-1.86848 0.56054,-0.8493 1.18053,-1.63066 1.74957,-2.36106 a 12.28095,12.28095 0 0 1 1.63066,-1.97888 3.065991,3.065991 0 0 0 -1.12957,-0.33973 c -0.50109,-0.051 -1.18054,-0.22082 -2.02984,-0.33123 -1.91094,-0.0595 -3.39722,-0.56903 -4.24653,-1.52874 5.0109,-1.01068 7.43991,-1.63067 12.45931,-2.87065 0.67095,0.33972 1.01067,0.56054 1.69861,0.90026 -0.78136,0.22931 -1.18054,0.28027 -2.14025,0.56054 z m -4.24653,13.02834 a 1.19752,1.19752 0 0 1 0.28027,-1.01917 1.3503949,1.3503949 0 0 1 0.90027,-0.56054 1.8260057,1.8260057 0 0 1 1.12957,0.16986 1.4777907,1.4777907 0 0 1 0.67945,0.84931 1.69861,1.69861 0 0 1 -0.16986,1.01916 1.2909436,1.2909436 0 0 1 -0.90027,0.56054 1.8260057,1.8260057 0 0 1 -1.12957,-0.16986 0.94272853,0.94272853 0 0 1 -0.82383,-0.8493 z m 2.97257,-12.79903 c -2.02984,0.50958 -3.09996,0.78986 -5.09583,1.18054 a 10.055771,10.055771 0 0 1 1.74957,0.8493 c 0.67944,0.45013 1.52025,0.90026 2.36956,1.52026 -0.45013,0.56903 -0.84931,1.29943 -1.29944,1.91943 -0.45013,0.61999 -0.8493,1.35039 -1.29094,2.02984 a 9.7670073,9.7670073 0 0 1 6.08102,2.70928 h 0.034 c -0.9852,-4.00872 -1.49478,-6.03856 -2.54792,-10.20865 z"
     class="cls-6"
     inkscape:connector-curvature="0"
     style="fill:#fffdfd;stroke-width:0.84930497" />
  <path
     id="path69"
     d="m 61.31982,47.017519 a 20.221952,20.221952 0 0 0 -2.369561,1.29944 29.513348,29.513348 0 0 0 -2.70079,1.91094 17.096509,17.096509 0 0 0 -2.47997,2.47997 27.475016,27.475016 0 0 0 -2.148742,3.049 15.236531,15.236531 0 0 0 -1.69861,5.69035 c -0.288764,2.36956 0,3.83885 0.781361,4.24652 a 13.452991,13.452991 0 0 1 1.528749,-0.33972 l 0.339722,-0.84931 a 5.8941766,5.8941766 0 0 1 0.39068,-0.90026 c 0.339722,-0.22931 0.730402,-0.45013 1.129576,-0.73889 0.399173,-0.28877 0.730402,-0.56055 1.070124,-0.78986 l -0.339722,0.67945 c -0.39068,0.78985 -0.730402,1.5797 -1.070124,2.3101 4.79008,2.36957 7.27005,3.5501 12.119582,5.94514 -0.789854,0.50958 -1.180534,0.78985 -1.970388,1.35039 -4.3994,-2.02983 -6.709509,-3.04051 -11.040965,-4.95994 -0.569034,1.3504 -0.849305,2.02984 -1.358888,3.49914 -0.849305,0.7304 -1.180534,1.07012 -2.029839,1.85998 a 59.70614,59.70614 0 0 1 2.318603,-6.2339 c -0.560541,0.50958 -0.849305,0.7304 -1.409846,1.29094 -0.560542,0.56054 -1.010673,0.67945 -1.350395,0.50959 -0.900263,-0.45014 -1.520256,-1.97039 -1.350395,-4.50981 a 16.204739,16.204739 0 0 1 1.69861,-6.59061 20.918382,20.918382 0 0 1 11.270277,-10.19166 c 0.280271,-0.1274 0.331229,-0.017 0.670951,-0.017 z"
     class="cls-5"
     inkscape:connector-curvature="0"
     style="fill:#ffffff;stroke-width:0.84930497" />
  <path
     id="path71"
     d="m 67.078108,44.817823 c 3.889817,3.889816 5.809246,5.868696 9.750021,9.758516 -0.849305,0.16137 -1.350395,0.22082 -2.191207,0.45013 -2.378054,-2.36956 -3.618039,-3.55859 -5.9876,-5.76678 a 3.3122894,3.3122894 0 0 0 -2.479971,-0.33972 3.3972199,3.3972199 0 0 0 -2.59038,1.46929 4.8919967,4.8919967 0 0 0 -0.747388,1.4778 c -0.169861,0.61999 -0.05945,0.95971 0.169861,1.07012 2.140248,-1.29944 3.39722,-1.52026 3.889817,-1.07012 a 1.69861,1.69861 0 0 1 0.560541,1.46929 4.4758373,4.4758373 0 0 1 -0.679444,2.14025 5.452538,5.452538 0 0 1 -1.460805,1.29095 2.1912069,2.1912069 0 0 1 -1.69861,0.33972 4.1785805,4.1785805 0 0 1 -0.509583,3.88981 3.6180392,3.6180392 0 0 1 -1.409846,1.35889 1.4098463,1.4098463 0 0 1 -1.409846,0 1.9449084,1.9449084 0 0 1 -0.679444,-0.78985 3.753928,3.753928 0 0 1 -0.339722,-1.18903 13.962574,13.962574 0 0 1 0,-1.4608 3.9068029,3.9068029 0 0 1 0.458625,-1.52875 4.8835037,4.8835037 0 0 0 -3.329276,2.42901 c -0.823826,1.33341 -1.163548,2.18271 -1.333409,2.36956 -0.339722,0.22082 -0.730402,0.50109 -1.129575,0.78985 -0.399174,0.28877 -0.730403,0.56055 -1.121083,0.84931 a 26.404892,26.404892 0 0 1 2.31011,-4.73063 7.1171758,7.1171758 0 0 1 2.36956,-2.59887 2.9385952,2.9385952 0 0 1 2.547915,-0.62 6.5481414,6.5481414 0 0 1 1.189027,-6.25937 4.8580245,4.8580245 0 0 1 3.040512,-1.57122 5.7582878,5.7582878 0 0 1 2.989554,-0.22931 l 0.05945,-0.11041 C 65.566345,46.176711 64.71704,45.50576 62.806104,43.985504 a 14.225859,14.225859 0 0 1 1.460804,-0.509583 2.1657277,2.1657277 0 0 0 2.429013,-0.169861 8.8157857,8.8157857 0 0 1 1.520255,-0.730402 5.6393851,5.6393851 0 0 1 1.239986,-0.288764 c -0.866291,0.951222 -1.367381,1.460805 -2.378054,2.530929 z"
     class="cls-5"
     inkscape:connector-curvature="0"
     style="fill:#ffffff;stroke-width:0.84930497" />
  <path
     id="path73"
     d="m 92.947938,26.778585 a 57.463975,57.463975 0 0 0 -8.679897,4.059678 c 0.450131,0.730402 0.619992,1.180534 1.010673,1.919429 a 6.8538912,6.8538912 0 0 1 1.299436,-0.789853 6.6755372,6.6755372 0 0 1 4.059678,-0.849305 2.9555813,2.9555813 0 0 1 2.547915,1.639158 2.5988733,2.5988733 0 0 1 0,1.859978 3.0235257,3.0235257 0 0 1 -1.180534,1.350395 4.9004898,4.9004898 0 0 1 -1.919429,0.509583 1.5117629,1.5117629 0 0 1 -1.350395,-0.450132 1.0446451,1.0446451 0 0 1 0,-1.070124 1.4777907,1.4777907 0 0 1 0.900263,-0.849305 2.887637,2.887637 0 0 1 2.369561,-0.169861 2.0298389,2.0298389 0 0 0 0,-0.849305 C 91.835348,32.63879 91.155904,32.41797 90.145231,32.587831 a 10.488917,10.488917 0 0 0 -2.369561,0.789854 8.0344252,8.0344252 0 0 0 -1.460804,1.010673 c 1.741075,3.39722 2.70079,5.09583 4.450358,8.628939 a 7.9749738,7.9749738 0 0 0 -1.010673,-0.229313 v 0 c -0.679444,-0.509583 -1.189027,-0.849305 -1.69861,-1.180534 a 4.2889902,4.2889902 0 0 0 -1.010673,-0.619992 v 0 a 5.2656909,5.2656909 0 0 0 -3.719956,-0.05945 2.9470883,2.9470883 0 0 1 -1.350395,2.547915 2.4969567,2.4969567 0 0 1 -1.639158,0.619993 1.3758741,1.3758741 0 0 1 -1.299437,-2.1997 3.7624211,3.7624211 0 0 1 1.69861,-1.69861 1.2145061,1.2145061 0 0 0 -0.229312,-0.730402 1.5457351,1.5457351 0 0 0 -1.469298,-0.679444 3.0065396,3.0065396 0 0 0 -1.910936,0.679444 0.56054129,0.56054129 0 0 0 -0.339722,0.450131 c -0.05945,0.22082 -0.339722,0.450132 -0.280271,0.50109 a 3.4736574,3.4736574 0 0 1 0.169861,1.469298 3.9832404,3.9832404 0 0 1 -1.019166,1.639159 3.3122894,3.3122894 0 0 1 -1.78354,0.900263 1.6051864,1.6051864 0 0 1 -1.630666,-0.509583 c -0.450132,-0.509585 -0.229312,-1.4693 0.450132,-2.479973 a 5.9451349,5.9451349 0 0 1 0.789853,-0.849305 c 0,-0.05096 0,-0.05096 -0.05945,-0.169861 -0.05945,-0.118902 -0.169861,-0.05096 -0.339722,-0.161368 h -0.560541 c -0.280271,0 -0.450132,0.11041 -0.679444,0.11041 -0.229313,0 -0.450132,0.05096 -0.50109,0.169861 -0.908757,0.849305 -1.409847,1.290944 -2.259151,2.1997 a 17.198426,17.198426 0 0 0 -2.479971,0.670951 71.732299,71.732299 0 0 1 24.358067,-16.799253 3.584067,3.584067 0 0 1 1.987373,0.169861 z m -5.860205,13.138748 c -1.019166,-1.859978 -1.528749,-2.768734 -2.547915,-4.67967 a 11.346715,11.346715 0 0 1 -4.246525,1.180534 4.5862469,4.5862469 0 0 1 -3.329275,-1.010673 c -1.69861,1.290943 -2.547915,1.910936 -4.246525,3.39722 a 3.7624211,3.7624211 0 0 1 0.679444,0.169861 c 0.220819,0.110409 0.560541,0.169861 1.010673,0.339722 0.28027,-0.169861 0.509583,-0.229313 0.679444,-0.339722 0.169861,-0.11041 0.339722,-0.169861 0.50109,-0.229313 a 5.5289755,5.5289755 0 0 1 2.148741,-0.670951 13.988053,13.988053 0 0 1 2.140249,-0.169861 5.9451349,5.9451349 0 0 1 1.859978,0.50109 4.5437817,4.5437817 0 0 1 1.299436,1.019166 4.8919967,4.8919967 0 0 1 4.059678,0.509583 z m -3.39722,-6.089516 c -0.450131,-0.849305 -0.679444,-1.189027 -1.070124,-2.029839 -1.469298,0.849305 -2.148742,1.290943 -3.39722,2.140248 -0.288764,0.169861 -0.339722,0.450132 -0.118903,0.849305 0.679444,1.010673 1.859978,0.849305 3.838859,-0.339722 a 1.189027,1.189027 0 0 1 0.450132,-0.229312 c -0.08493,-0.169861 0.08493,-0.246299 0.254791,-0.39068 z"
     class="cls-5"
     inkscape:connector-curvature="0"
     style="fill:#ffffff;stroke-width:0.84930497" />
  <path
     id="path75"
     d="m 96.897206,25.5386 c 1.605186,5.240212 2.454491,7.949495 4.153104,13.189706 -0.78986,-0.339722 -1.18903,-0.450131 -1.919432,-0.789853 -1.299437,-3.719956 -1.859978,-5.579934 -3.159415,-9.342355 a 1.5882003,1.5882003 0 0 0 -0.670951,-0.900263 2.3355887,2.3355887 0 0 0 -1.189027,-0.450132 2.9980466,2.9980466 0 0 0 -0.730402,-0.05945 4.085157,4.085157 0 0 0 -0.849305,0.05945 h -0.78136 A 0.94272853,0.94272853 0 0 1 91.070974,26.84653 2.547915,2.547915 0 0 1 90.901113,26.455849 c 0.560541,-0.169861 0.959714,-0.28027 1.299436,-0.399173 a 5.8262322,5.8262322 0 0 1 0.619993,-0.169861 1.8344988,1.8344988 0 0 1 0.789853,-0.05096 4.5098095,4.5098095 0 0 1 0.619993,0.110409 4.6626844,4.6626844 0 0 1 1.520256,0.959715 C 95.640234,26.676669 95.580783,26.285988 95.410922,25.946266 95.241061,25.606544 95.0712,25.215864 94.790929,24.64683 a 4.7221357,4.7221357 0 0 1 -0.509583,-1.290944 c -0.169861,-0.339722 -0.220819,-0.679444 -0.339722,-0.900263 a 4.2465249,4.2465249 0 0 1 0.849305,0.161368 3.1509215,3.1509215 0 0 0 1.859978,1.528749 l 0.509583,-0.169861 a 6.7434816,6.7434816 0 0 0 1.070125,-0.450132 c 0.28027,0.11041 0.619992,0.220819 1.010673,0.331229 a 8.9601676,8.9601676 0 0 0 1.639162,0.339722 c -0.84931,0.229312 -1.639162,0.509583 -2.479974,0.789854 -0.552049,0.212326 -1.00218,0.382187 -1.50327,0.552048 z"
     class="cls-5"
     inkscape:connector-curvature="0"
     style="fill:#ffffff;stroke-width:0.84930497" />
  <path
     id="path77"
     d="m 119.66707,22.328227 a 63.035416,63.035416 0 0 0 -10.76918,0.789854 c 0.16986,0.161368 0.45862,0.220819 0.62848,0.450131 a 5.7667809,5.7667809 0 0 0 0.61999,0.331229 8.9856467,8.9856467 0 0 1 4.11064,1.078618 2.8706509,2.8706509 0 0 1 1.69861,2.547915 3.235852,3.235852 0 0 1 -1.69861,2.768734 15.780087,15.780087 0 0 1 -3.86434,1.78354 18.412932,18.412932 0 0 1 4.05968,1.69861 28.145967,28.145967 0 0 1 4.33995,2.879144 c 0.16986,0.50109 0.22931,0.849305 0.39917,1.350395 a 13.656824,13.656824 0 0 0 -2.59887,-1.919429 18.421425,18.421425 0 0 0 -3.39722,-1.520256 15.915975,15.915975 0 0 0 -3.83037,-0.849305 24.137248,24.137248 0 0 0 -4.00872,-0.161368 c -1.07012,-1.078617 -1.69861,-1.69861 -2.87065,-2.709283 a 21.453444,21.453444 0 0 0 5.35062,-0.11041 10.811652,10.811652 0 0 0 3.60955,-1.019166 c 1.4693,-0.730402 2.14025,-1.520255 1.91943,-2.36956 a 1.9109362,1.9109362 0 0 0 -0.84931,-1.520256 3.6010531,3.6010531 0 0 0 -0.95971,-0.450132 6.0640376,6.0640376 0 0 0 -1.07012,-0.05945 c -0.16987,0 -0.33123,0.05945 -0.50109,0.05945 -0.16987,0 -0.45014,0.11041 -0.50959,0.169861 a 3.6350253,3.6350253 0 0 1 -0.90026,1.859978 4.4588512,4.4588512 0 0 1 -2.36956,1.180534 7.5503213,7.5503213 0 0 1 -1.63916,0 1.189027,1.189027 0 0 1 -0.90026,-0.781361 2.6413385,2.6413385 0 0 1 0.89177,-2.327095 6.0725306,6.0725306 0 0 1 3.049,-1.520256 c 0,-0.22082 -0.50958,-0.509583 -1.52025,-0.849305 -1.35889,0.220819 -2.76874,0.50109 -4.17858,0.849305 -0.39069,0.110409 -0.73041,0.169861 -1.12109,0.28027 a 2.6668177,2.6668177 0 0 1 -1.698607,0 2.1232625,2.1232625 0 0 1 -0.951222,-0.619992 c 1.630666,-0.50109 3.490639,-1.010673 5.469529,-1.460805 a 59.774085,59.774085 0 0 1 7.43991,-1.189027 4.2465249,4.2465249 0 0 0 0.8493,-0.169861 8.5355151,8.5355151 0 0 1 0.84931,-0.220819 c 0.78985,-0.229313 1.07012,-0.509583 1.07012,-0.849305 0,-0.339722 -0.50958,-0.50109 -1.35039,-0.619993 -0.22932,0 -0.62,-0.110409 -0.95972,-0.110409 a 3.2103728,3.2103728 0 0 0 -1.01916,0.110409 6.981287,6.981287 0 0 0 -1.29095,0.169861 13.860657,13.860657 0 0 0 -1.74957,0.339722 c -0.67944,0.169861 -1.29943,0.229313 -1.80902,0.339722 -0.50958,0.11041 -0.90026,0.169861 -1.29094,0.220819 a 12.08561,12.08561 0 0 1 -4.458851,0.229313 c -1.630665,-0.169861 -2.59038,-0.679444 -2.870651,-1.520256 a 1.4862837,1.4862837 0 0 1 0.280271,-1.019166 c 0.229312,-0.509583 0.509583,-0.789854 0.849305,-0.789854 a 0.35670809,0.35670809 0 0 0 0.220819,-0.05096 c 0.05945,0 0.169861,-0.118903 0.339722,-0.118903 a 1.4353254,1.4353254 0 0 0 -0.679444,1.358888 c 0.118903,0.450132 0.619993,0.670951 1.469298,0.730403 a 6.1149959,6.1149959 0 0 0 2.199701,-0.169861 c 0.33972,-0.05945 0.95971,-0.22082 1.85998,-0.450132 0.90026,-0.229312 2.1997,-0.619993 3.6605,-0.849305 a 13.291623,13.291623 0 0 1 6.14897,0.229312 2.6498316,2.6498316 0 0 1 2.02135,2.624353 c 0.67944,0 1.01067,-0.11041 1.80052,-0.11041 a 13.58888,13.58888 0 0 0 2.47997,2.055318 z"
     class="cls-5"
     inkscape:connector-curvature="0"
     style="fill:#ffffff;stroke-width:0.84930497" />
  <path
     id="path79"
     d="m 155.9239,31.848936 c -1.35889,-0.781361 -2.02984,-1.180534 -3.39722,-1.859978 -2.42052,4.968434 -3.71995,7.448405 -6.14047,12.459304 a 3.9917334,3.9917334 0 0 0 -0.45013,-0.50109 v 0 a 7.7031962,7.7031962 0 0 0 -1.85998,-6.369787 5.0193925,5.0193925 0 0 1 -2.25915,0.50109 8.6119526,8.6119526 0 0 1 -2.76024,-0.50109 4.6456983,4.6456983 0 0 1 -1.63916,-0.849305 10.251111,10.251111 0 0 1 -1.54574,-1.299437 14.276817,14.276817 0 0 1 -1.4693,-1.69861 17.198426,17.198426 0 0 1 -1.18053,-1.919429 8.7903066,8.7903066 0 0 1 -0.90026,-2.760241 19.899216,19.899216 0 0 1 -0.33973,-3.269824 12.39136,12.39136 0 0 1 1.12958,0.619992 9.9198822,9.9198822 0 0 0 0.7304,3.159415 10.463437,10.463437 0 0 0 1.3504,2.547915 9.2744104,9.2744104 0 0 0 1.85998,2.029839 6.2763638,6.2763638 0 0 0 2.3186,1.299436 c 2.02984,0.679444 3.55009,0.730403 4.50981,0.169861 a 3.1339354,3.1339354 0 0 0 1.35039,-1.520256 1.367381,1.367381 0 0 0 0.16986,-0.679444 4.9769272,4.9769272 0 0 0 -0.22931,-1.299436 2.1487416,2.1487416 0 0 0 -0.61999,-1.010673 2.717776,2.717776 0 0 0 -1.01067,-0.849305 c -0.33973,-0.169861 -0.78986,-0.220819 -1.07013,-0.339722 a 1.69861,1.69861 0 0 1 0.22082,1.189027 1.69861,1.69861 0 0 1 -0.61999,0.670951 4.8155593,4.8155593 0 0 1 -1.18054,0.339722 4.2465249,4.2465249 0 0 1 -2.31011,-0.339722 3.3972199,3.3972199 0 0 1 -1.69861,-1.350395 1.6136795,1.6136795 0 0 1 -0.1189,-1.010673 1.8090196,1.8090196 0 0 1 0.67945,-0.908756 2.7092829,2.7092829 0 0 1 1.29943,-0.50109 8.6289387,8.6289387 0 0 1 3.39722,0.220819 c 0.50109,0.169861 1.01068,0.450132 1.52026,0.679444 a 9.8519378,9.8519378 0 0 1 1.80052,1.520256 7.159641,7.159641 0 0 1 1.18903,1.919429 3.2613311,3.2613311 0 0 1 -0.16986,2.70079 5.8007531,5.8007531 0 0 1 -1.18903,1.69861 20.629618,20.629618 0 0 1 1.62218,2.530929 c 1.52875,-3.329276 2.25915,-4.908983 3.83885,-8.229766 -7.40593,-3.558587 -11.2363,-4.739121 -19.24525,-6.106502 a 16.646378,16.646378 0 0 0 -1.85997,-1.639159 69.00603,69.00603 0 0 1 25.03751,8.433598 18.557314,18.557314 0 0 1 1.23998,2.123263 z m 3.04051,1.978881 c -2.98955,4.67967 -4.3994,6.98978 -7.27005,11.66945 -0.22931,-0.849305 -0.45013,-1.189027 -0.67944,-2.029839 1.91943,-3.39722 2.98955,-5.09583 4.95994,-8.49305 a 2.6073663,2.6073663 0 0 0 0.28027,-1.180534 2.4205192,2.4205192 0 0 0 -0.45013,-1.299436 5.1977465,5.1977465 0 0 0 -1.01067,-1.180534 6.1744472,6.1744472 0 0 0 -1.4693,-1.019166 c -0.50958,-0.849305 -0.7304,-1.290944 -1.29094,-2.140249 0.8493,0.450132 1.29094,0.679444 2.14024,1.070125 a 8.7563344,8.7563344 0 0 1 2.36956,1.919429 3.3377686,3.3377686 0 0 1 0.50109,2.369561 8.4930499,8.4930499 0 0 1 0.50959,-0.849305 c 0.16986,-0.339722 0.33972,-0.730403 0.61999,-1.299437 0.28027,-0.569034 0.45013,-0.849305 0.61999,-1.290943 0.16986,-0.441639 0.33973,-0.619993 0.45013,-0.849305 a 6.2254055,6.2254055 0 0 0 0.45014,0.789853 3.2273589,3.2273589 0 0 0 0.0594,2.420519 16.417065,16.417065 0 0 0 1.59669,1.11259 18.07321,18.07321 0 0 1 0.90876,2.310109 c -1.26547,-0.679444 -1.94491,-1.189026 -3.29531,-2.029838 z"
     class="cls-5"
     inkscape:connector-curvature="0"
     style="fill:#ffffff;stroke-width:0.84930497" />
  <path
     id="path81"
     d="m 171.87385,44.877274 a 14.514622,14.514622 0 0 0 -3.72845,-2.199699 9.3423548,9.3423548 0 0 0 -3.39722,-0.619993 7.9410016,7.9410016 0 0 0 -2.70928,0.730402 8.4930499,8.4930499 0 0 0 -2.1997,1.919429 4.0172126,4.0172126 0 0 0 -0.7304,2.709286 c 0.16986,1.69861 0.67944,2.76024 1.5797,3.39722 a 1.8939501,1.8939501 0 0 1 -0.16986,-1.07013 0.92574243,0.92574243 0 0 1 0.33972,-0.73889 0.90026328,0.90026328 0 0 1 1.18054,-0.22082 3.915296,3.915296 0 0 1 1.4693,0.7304 2.4459984,2.4459984 0 0 1 0.7304,1.52026 1.4523115,1.4523115 0 0 1 -0.50958,1.46929 2.2251791,2.2251791 0 0 1 -0.78986,0.45014 1.2654644,1.2654644 0 0 1 -0.90026,0 2.726269,2.726269 0 0 1 -1.01067,-0.45014 5.8517113,5.8517113 0 0 1 -1.01917,-0.7304 6.3273221,6.3273221 0 0 1 -2.11477,-5.061856 7.5248422,7.5248422 0 0 1 1.4608,-4.3994 c 1.35889,-1.859978 3.83886,-2.87065 7.44841,-2.547915 -0.95972,-0.849305 -1.97888,-1.69861 -3.09996,-2.649831 -0.84931,-0.670951 -1.63916,-1.290944 -2.47997,-1.859978 0,-0.220819 0.051,-0.50109 0.051,-0.730402 v -0.849305 a 52.903208,52.903208 0 0 1 5.09583,4.000226 55.204824,55.204824 0 0 1 5.09583,5.240212 c 0,0.229312 0.0594,0.450132 0.0594,0.679444 a 6.4377318,6.4377318 0 0 1 0.34822,1.28245 z"
     class="cls-5"
     inkscape:connector-curvature="0"
     style="fill:#ffffff;stroke-width:0.84930497" />
  <path
     id="path83"
     d="m 182.98276,60.546949 c -4.73912,2.70929 -7.10868,4.17009 -11.83931,6.79444 0.051,-0.90026 0.051,-1.40984 0.051,-2.36107 2.54791,-1.63915 3.83885,-2.36956 6.25937,-3.88981 0.45014,-0.22931 0.62,-0.67945 0.62,-1.35889 a 3.584067,3.584067 0 0 0 -0.58602,-1.97888 c -0.67096,-1.07013 -1.3504,-1.3504 -2.14025,-0.7304 -0.16986,0.0594 -0.33972,0.33972 -0.62,0.61999 a 7.49087,7.49087 0 0 1 -0.67944,-0.61999 3.2273589,3.2273589 0 0 0 0.45013,-2.47997 6.6925233,6.6925233 0 0 0 -1.35039,-2.98956 4.5777539,4.5777539 0 0 0 -1.07013,-1.01067 5.6478782,5.6478782 0 0 0 -1.18053,-0.61999 1.5966934,1.5966934 0 0 0 -1.12958,-0.0595 1.3928602,1.3928602 0 0 0 -0.90026,0.45013 c -0.78985,0.7304 -0.61999,1.85998 0.50109,3.39722 0.1189,-0.62 0.16986,-1.01917 0.45013,-1.18054 a 1.3758741,1.3758741 0 0 1 1.18903,-0.1189 3.1509215,3.1509215 0 0 1 1.35039,1.01917 c 1.12958,1.52025 1.12958,2.76024 0.16986,3.49064 a 1.5882003,1.5882003 0 0 1 -1.52025,0.0594 5.3081562,5.3081562 0 0 1 -1.85998,-1.52025 c -0.50958,-0.67945 -0.90026,-1.35889 -1.29944,-1.91943 a 7.1171758,7.1171758 0 0 1 -0.61999,-1.85998 3.4821504,3.4821504 0 0 1 0.11041,-1.69861 7.2190924,7.2190924 0 0 1 0.7389,-1.4693 3.1084562,3.1084562 0 0 1 2.54791,-0.8493 4.4588512,4.4588512 0 0 1 3.21887,1.85997 7.5503213,7.5503213 0 0 1 1.69861,5.09583 c 0.33972,-0.22082 0.7304,-0.22082 1.40984,0.11041 a 3.0320188,3.0320188 0 0 1 1.46081,1.18903 4.6202191,4.6202191 0 0 1 0.33972,4.73063 c 1.18903,-0.78136 1.74957,-1.07013 3.04901,-1.85998 A 62.916513,62.916513 0 0 0 170.86318,44.087421 c -0.22932,-1.019166 -0.45013,-1.520256 -0.67945,-2.547915 a 71.035869,71.035869 0 0 1 14.70997,20.459753 c 0,1.07013 0,1.69861 -0.051,2.76025 a 33.267276,33.267276 0 0 0 -1.85998,-4.21256 z"
     class="cls-5"
     inkscape:connector-curvature="0"
     style="fill:#ffffff;stroke-width:0.84930497" />
  <path
     id="path85"
     d="m 186.59231,68.725759 c -4.96844,2.14025 -7.44841,3.21037 -12.3489,5.35062 0.16986,-0.95971 0.22082,-1.35039 0.45013,-2.36956 3.39722,-1.57121 5.09583,-2.42052 8.62894,-4.05118 a 2.547915,2.547915 0 0 0 0.84931,-0.84931 3.8133794,3.8133794 0 0 0 0.22931,-1.4693 8.4930499,8.4930499 0 0 0 -0.22931,-1.74107 9.6990629,9.6990629 0 0 0 -0.73041,-2.14874 c 0,-0.84931 -0.0594,-1.63067 -0.0594,-2.47997 0.11891,0.22931 0.33972,0.50958 0.56904,0.8493 0.22931,0.33972 0.50109,0.84931 0.8493,1.57971 a 7.2530646,7.2530646 0 0 1 1.01917,3.26982 4.3909068,4.3909068 0 0 1 -0.78986,2.54792 6.131982,6.131982 0 0 0 0.84931,-0.45014 c 0.33972,-0.16986 0.73889,-0.45013 1.18903,-0.7304 0.45013,-0.28027 0.8493,-0.50958 1.18053,-0.67944 0.33123,-0.16986 0.56054,-0.33123 0.84931,-0.45013 v 1.01916 a 3.1084562,3.1084562 0 0 0 -1.18903,2.25066 c 0.33972,0.84931 0.50958,1.29944 0.78985,2.14874 -0.16986,1.12109 -0.28027,1.69861 -0.45013,2.8112 -0.64547,-1.87696 -0.98519,-2.71777 -1.65614,-4.40789 z"
     class="cls-5"
     inkscape:connector-curvature="0"
     style="fill:#ffffff;stroke-width:0.84930497" />
</svg>
